<svg width="50" height="50" viewBox="0 0 50 50" fill="none" xmlns="http://www.w3.org/2000/svg">
<path d="M44.6625 24.2958L25.5167 43.4417C23.1712 45.7872 19.99 47.1049 16.673 47.1049C13.3559 47.1049 10.1747 45.7872 7.82922 43.4417C5.48371 41.0962 4.16602 37.915 4.16602 34.5979C4.16602 31.2809 5.48371 28.0997 7.82922 25.7542L26.975 6.60833C28.5387 5.04466 30.6595 4.1662 32.8709 4.1662C35.0822 4.1662 37.203 5.04466 38.7667 6.60833C40.3304 8.172 41.2088 10.2928 41.2088 12.5042C41.2088 14.7155 40.3304 16.8363 38.7667 18.4L19.6 37.5458C19.2129 37.933 18.7533 38.24 18.2475 38.4496C17.7417 38.6591 17.1996 38.7669 16.6521 38.7669C16.1047 38.7669 15.5625 38.6591 15.0567 38.4496C14.5509 38.24 14.0913 37.933 13.7042 37.5458C13.3171 37.1587 13.01 36.6991 12.8005 36.1933C12.591 35.6875 12.4831 35.1454 12.4831 34.5979C12.4831 34.0504 12.591 33.5083 12.8005 33.0025C13.01 32.4967 13.3171 32.0371 13.7042 31.65L31.3917 13.9833" stroke="#232323" stroke-width="1.5" stroke-linecap="round" stroke-linejoin="round"/>
</svg>
