<svg width="50" height="50" viewBox="0 0 50 50" fill="none" xmlns="http://www.w3.org/2000/svg">
<path d="M25 12.5V20.8333M15.625 39.5833C16.9896 43.225 20.6708 45.8333 25 45.8333C25.5097 45.8333 26.0097 45.7986 26.5 45.7292M34.375 39.5833C33.8107 41.0705 32.8772 42.3897 31.6625 43.4167M18.9729 5.57084C20.8466 4.64385 22.9095 4.16324 25 4.16667C32.7646 4.16667 39.0625 10.7 39.0625 18.7604V20.2292C39.06 21.9824 39.5603 23.6996 40.5042 25.1771L42.8125 28.7688C44.9188 32.05 43.3104 36.5104 39.6458 37.5479C30.0702 40.2597 19.9298 40.2597 10.3542 37.5479C6.68959 36.5104 5.08126 32.05 7.18751 28.7708L9.49584 25.1771C10.4397 23.6996 10.94 21.9824 10.9375 20.2292V18.7604C10.9375 16.5229 11.4229 14.4021 12.2917 12.5063" stroke="#1F2527" stroke-width="1.5" stroke-linecap="round"/>
</svg>
