<svg width="50" height="50" viewBox="0 0 50 50" fill="none" xmlns="http://www.w3.org/2000/svg">
<path d="M43.75 14.5833V13.2708C43.75 10.7854 43.75 9.54167 43.4208 8.54167C43.1212 7.61337 42.6119 6.76651 41.9323 6.06671C41.2528 5.36692 40.4212 4.83297 39.5021 4.50626C38.5271 4.16667 37.3208 4.16667 34.9062 4.16667H15.0937C12.6792 4.16667 11.4729 4.16667 10.4979 4.50626C9.57902 4.83276 8.74761 5.36639 8.06806 6.06581C7.38851 6.76522 6.87906 7.61167 6.57917 8.53959C6.25 9.54376 6.25 10.7854 6.25 13.2708V31.25M43.75 22.9167V42.4458C43.75 44.2333 41.6979 45.1833 40.4 43.9958C40.0359 43.6594 39.5583 43.4725 39.0625 43.4725C38.5667 43.4725 38.0891 43.6594 37.725 43.9958L36.7187 44.9167C36.0808 45.5066 35.2439 45.8343 34.375 45.8343C33.5061 45.8343 32.6692 45.5066 32.0312 44.9167C31.3933 44.3268 30.5564 43.9991 29.6875 43.9991C28.8186 43.9991 27.9817 44.3268 27.3437 44.9167C26.7058 45.5066 25.8689 45.8343 25 45.8343C24.1311 45.8343 23.2942 45.5066 22.6562 44.9167C22.0183 44.3268 21.1814 43.9991 20.3125 43.9991C19.4436 43.9991 18.6067 44.3268 17.9687 44.9167C17.3308 45.5066 16.4939 45.8343 15.625 45.8343C14.7561 45.8343 13.9192 45.5066 13.2812 44.9167L12.275 43.9958C11.9109 43.6594 11.4333 43.4725 10.9375 43.4725C10.4417 43.4725 9.96414 43.6594 9.6 43.9958C8.30208 45.1833 6.25 44.2333 6.25 42.4458V39.5833" stroke="#1F2527" stroke-width="1.125" stroke-linecap="round"/>
<path d="M19.7916 21.6667L22.7687 25L30.2083 16.6667" stroke="#1F2527" stroke-width="1.125" stroke-linecap="round" stroke-linejoin="round"/>
<path d="M15.625 32.2917H18.75M34.375 32.2917H25" stroke="#1F2527" stroke-width="1.125" stroke-linecap="round"/>
</svg>
