<?xml version="1.0" encoding="UTF-8"?><svg id="Layer_2" xmlns="http://www.w3.org/2000/svg" viewBox="0 0 42.79 41.75"><defs><style>.cls-1{fill:#1f2527;}</style></defs><g id="Layer_1-2"><path class="cls-1" d="M25.56,41.75h-8.33c-8,0-12.02,0-14.62-2.61-2.61-2.61-2.61-6.62-2.61-14.62v-4.17c0-2.31,0-4.29.06-5.99-.04-.08-.06-.17-.06-.26,0-.11.03-.21.09-.3.18-3.88.75-6.3,2.52-8.07,1.73-1.73,4.08-2.31,7.81-2.51V.56c0-.31.25-.56.56-.56s.56.25.56.56v2.61c1.64-.05,3.51-.05,5.69-.05h8.33c2.17,0,4.05,0,5.69.05V.56c0-.31.25-.56.56-.56s.56.25.56.56v2.66c3.73.2,6.08.78,7.81,2.51,2.61,2.61,2.61,6.62,2.61,14.62v4.17c0,8,0,12.02-2.61,14.62-1.38,1.38-3.25,2.1-6.23,2.39-.31.03-.58-.2-.61-.5s.2-.58.5-.61c2.74-.27,4.35-.87,5.55-2.07,2.28-2.28,2.28-6.14,2.28-13.83v-4.17c0-2.27,0-4.21-.06-5.88-.1.12-.25.19-.42.19h-22.4c-.31,0-.56-.25-.56-.56s.25-.56.56-.56h22.4c.15,0,.29.06.39.15-.18-3.5-.69-5.67-2.18-7.17-2.28-2.28-6.14-2.28-13.83-2.28h-8.33c-7.69,0-11.55,0-13.83,2.28-1.47,1.47-1.99,3.61-2.18,7.01h7.41c.31,0,.56.25.56.56s-.25.56-.56.56H1.18c-.05,1.62-.05,3.5-.05,5.69v4.17c0,7.69,0,11.55,2.28,13.83,2.27,2.28,6.14,2.28,13.83,2.28h8.33c.31,0,.56.25.56.56s-.25.56-.56.56ZM29.73,33.42c-.31,0-.56-.25-.56-.56v-3.6h-3.6c-.31,0-.56-.25-.56-.56s.25-.56.56-.56h3.6v-3.6c0-.31.25-.56.56-.56s.56.25.56.56v3.6h3.6c.31,0,.56.25.56.56s-.25.56-.56.56h-3.6v3.6c0,.31-.25.56-.56.56Z"/></g></svg>