<svg width="50" height="50" viewBox="0 0 50 50" fill="none" xmlns="http://www.w3.org/2000/svg">
<path d="M37.5 33.3333H33.3333M33.3333 33.3333H29.1666M33.3333 33.3333V29.1667M33.3333 33.3333V37.5M14.5833 8.33333V5.20833M35.4166 8.33333V5.20833M44.7916 18.75H22.3958M4.16663 18.75H12.2395M29.1666 45.8333H20.8333C12.977 45.8333 9.04788 45.8333 6.60829 43.3917C4.16871 40.95 4.16663 37.0229 4.16663 29.1667V25C4.16663 17.1437 4.16663 13.2146 6.60829 10.775C9.04996 8.33541 12.977 8.33333 20.8333 8.33333H29.1666C37.0229 8.33333 40.952 8.33333 43.3916 10.775C45.8312 13.2167 45.8333 17.1437 45.8333 25V29.1667C45.8333 37.0229 45.8333 40.9521 43.3916 43.3917C42.0312 44.7542 40.2083 45.3562 37.5 45.6208" stroke="#1F2527" stroke-width="1.125" stroke-linecap="round"/>
</svg>
