<?xml version="1.0" encoding="UTF-8"?><svg id="Layer_2" xmlns="http://www.w3.org/2000/svg" viewBox="0 0 42.79 42.79"><defs><style>.cls-1{fill:#1f2527;}</style></defs><g id="Layer_1-2"><path class="cls-1" d="M21.36,42.79c-3.28,0-6.56-.77-9.49-2.23-.62-.32-1.33-.4-2.01-.24l-4.63,1.24c-.56.15-1.14.15-1.69,0-.55-.15-1.06-.44-1.47-.85s-.7-.91-.85-1.47c-.15-.55-.15-1.14,0-1.69l1.24-4.64c.17-.64.09-1.35-.24-1.99-1.48-2.98-2.23-6.18-2.23-9.53C0,9.6,9.6,0,21.4,0h.03c3.74,0,7.43.99,10.66,2.86.27.16.36.5.21.77-.16.27-.5.36-.77.21-3.07-1.77-6.56-2.71-10.1-2.71h-.03C10.22,1.12,1.12,10.22,1.12,21.4c0,3.17.71,6.21,2.11,9.03.45.89.56,1.88.32,2.79l-1.24,4.64c-.1.36-.1.75,0,1.11s.29.7.55.96c.27.26.6.46.96.56.36.1.75.1,1.11,0l4.64-1.24c.95-.24,1.94-.12,2.8.32,2.77,1.38,5.88,2.11,8.98,2.11h.03c11.18,0,20.27-9.09,20.27-20.27,0-3.57-.94-7.07-2.71-10.13-.16-.27-.06-.61.2-.77.27-.16.61-.06.77.21,1.87,3.24,2.86,6.93,2.86,10.7,0,11.8-9.6,21.4-21.4,21.4h-.03Z"/><path class="cls-1" d="M29.73,22.15c-.41,0-.76-.34-.76-.75s.33-.75.74-.75h.02c.41,0,.75.34.75.75s-.34.75-.75.75ZM21.4,22.15c-.41,0-.76-.34-.76-.75s.33-.75.74-.75h.02c.41,0,.75.34.75.75s-.34.75-.75.75ZM13.08,22.15c-.41,0-.76-.34-.76-.75s.33-.75.74-.75h.02c.41,0,.75.34.75.75s-.34.75-.75.75Z"/></g></svg>