<?xml version="1.0" encoding="UTF-8"?><svg id="Layer_2" xmlns="http://www.w3.org/2000/svg" viewBox="0 0 39 37.56"><defs><style>.cls-1{fill:#292727;}</style></defs><g id="Layer_1-2"><path class="cls-1" d="M29.92,37.56H9.08c-2.43,0-4.71-.94-6.42-2.66-1.72-1.72-2.66-4-2.66-6.42v-13.11c0-1.56.4-3.1,1.17-4.46.76-1.36,1.87-2.5,3.21-3.31L14.79,1.29c2.84-1.72,6.58-1.72,9.41,0l10.42,6.31c1.33.81,2.44,1.95,3.21,3.31.77,1.36,1.17,2.9,1.17,4.46v13.11c0,2.43-.94,4.71-2.66,6.42-1.72,1.72-4,2.66-6.42,2.66ZM19.5,1.48c-1.39,0-2.74.38-3.93,1.1l-10.42,6.31c-1.11.67-2.04,1.63-2.68,2.76s-.98,2.42-.98,3.72v13.11c0,2.03.79,3.93,2.22,5.36,1.43,1.43,3.34,2.22,5.36,2.22h20.83c2.03,0,3.93-.79,5.36-2.22,1.43-1.43,2.22-3.34,2.22-5.36v-13.11c0-1.3-.34-2.59-.98-3.72-.64-1.13-1.56-2.09-2.68-2.76l-10.42-6.31c-1.18-.72-2.54-1.1-3.93-1.1ZM25.75,29.23h-12.5c-.41,0-.75-.34-.75-.75s.34-.75.75-.75h12.5c.41,0,.75.34.75.75s-.34.75-.75.75Z"/></g></svg>