<svg width="50" height="50" viewBox="0 0 50 50" fill="none" xmlns="http://www.w3.org/2000/svg">
<path d="M11.4583 18.2438C11.4583 14.4958 14.7228 11.4583 18.7499 11.4583C22.777 11.4583 26.0416 14.4958 26.0416 18.2438C26.0416 21.9625 23.7145 26.3021 20.0833 27.8542C19.6615 28.033 19.208 28.1251 18.7499 28.1251C18.2918 28.1251 17.8384 28.033 17.4166 27.8542C13.7853 26.3021 11.4583 21.9625 11.4583 18.2438Z" stroke="#1F2527" stroke-width="1.125"/>
<path d="M29.1666 29.1667L42.7083 42.7083M29.1666 29.1667L13.3229 45.0104M29.1666 29.1667L33.3333 25M45.0145 13.3208L39.5833 18.75" stroke="#1F2527" stroke-width="1.125" stroke-linecap="round"/>
<path d="M20.8333 18.75C20.8333 19.3025 20.6138 19.8324 20.2231 20.2231C19.8324 20.6138 19.3025 20.8333 18.75 20.8333C18.1974 20.8333 17.6675 20.6138 17.2768 20.2231C16.8861 19.8324 16.6666 19.3025 16.6666 18.75C16.6666 18.1975 16.8861 17.6676 17.2768 17.2769C17.6675 16.8862 18.1974 16.6667 18.75 16.6667C19.3025 16.6667 19.8324 16.8862 20.2231 17.2769C20.6138 17.6676 20.8333 18.1975 20.8333 18.75Z" fill="#1F2527"/>
<path d="M4.16663 25C4.16663 34.8208 4.16663 39.7313 7.21663 42.7813C10.2708 45.8333 15.1791 45.8333 25 45.8333C34.8208 45.8333 39.7312 45.8333 42.7812 42.7813C45.8333 39.7333 45.8333 34.8208 45.8333 25C45.8333 15.1792 45.8333 10.2688 42.7812 7.21667C39.7333 4.16667 34.8208 4.16667 25 4.16667C15.1791 4.16667 10.2687 4.16667 7.21663 7.21667C5.18954 9.24584 4.50829 12.0979 4.28121 16.6667" stroke="#1F2527" stroke-width="1.125" stroke-linecap="round"/>
</svg>
