<?xml version="1.0" encoding="UTF-8"?><svg id="Layer_2" xmlns="http://www.w3.org/2000/svg" viewBox="0 0 43.17 43.17"><defs><style>.cls-1{fill:#232323;}</style></defs><g id="Layer_1-2"><path class="cls-1" d="M21.58,43.17C9.68,43.17,0,33.48,0,21.58S9.68,0,21.58,0s21.58,9.68,21.58,21.58-9.68,21.58-21.58,21.58ZM21.58,1.5C10.51,1.5,1.5,10.51,1.5,21.58s9.01,20.08,20.08,20.08,20.08-9.01,20.08-20.08S32.66,1.5,21.58,1.5Z"/><path class="cls-1" d="M37.69,35.55c-.22,0-.44-.1-.59-.29-.04-.05-4.6-5.64-15.51-5.64s-15.47,5.59-15.51,5.64c-.26.33-.73.38-1.05.12-.32-.26-.38-.72-.13-1.05.2-.25,5-6.22,16.69-6.22s16.5,5.96,16.69,6.22c.26.33.2.8-.13,1.05-.14.11-.3.16-.46.16ZM21.58,22.33c-1.87,0-3.63-.73-4.95-2.05s-2.05-3.08-2.05-4.95.73-3.63,2.05-4.95,3.08-2.05,4.95-2.05,3.63.73,4.95,2.05c1.32,1.32,2.05,3.08,2.05,4.95s-.73,3.63-2.05,4.95c-1.32,1.32-3.08,2.05-4.95,2.05ZM21.58,9.83c-1.47,0-2.85.57-3.89,1.61-1.04,1.04-1.61,2.42-1.61,3.89s.57,2.85,1.61,3.89c1.04,1.04,2.42,1.61,3.89,1.61s2.85-.57,3.89-1.61,1.61-2.42,1.61-3.89-.57-2.85-1.61-3.89-2.42-1.61-3.89-1.61Z"/></g></svg>