<svg width="50" height="50" viewBox="0 0 50 50" fill="none" xmlns="http://www.w3.org/2000/svg">
<path d="M25 4.16667C13.4937 4.16667 4.16663 13.4938 4.16663 25C4.16663 36.5063 13.4937 45.8333 25 45.8333C36.5062 45.8333 45.8333 36.5063 45.8333 25C45.8333 13.4938 36.5062 4.16667 25 4.16667Z" stroke="#232323" stroke-width="1.5" stroke-linecap="round" stroke-linejoin="round"/>
<path d="M8.89783 38.2208C8.89783 38.2208 13.5416 32.2917 24.9999 32.2917C36.4582 32.2917 41.1041 38.2208 41.1041 38.2208M24.9999 25C26.6575 25 28.2472 24.3415 29.4193 23.1694C30.5914 21.9973 31.2499 20.4076 31.2499 18.75C31.2499 17.0924 30.5914 15.5027 29.4193 14.3306C28.2472 13.1585 26.6575 12.5 24.9999 12.5C23.3423 12.5 21.7526 13.1585 20.5805 14.3306C19.4084 15.5027 18.7499 17.0924 18.7499 18.75C18.7499 20.4076 19.4084 21.9973 20.5805 23.1694C21.7526 24.3415 23.3423 25 24.9999 25Z" stroke="#232323" stroke-width="1.5" stroke-linecap="round" stroke-linejoin="round"/>
</svg>
