<svg width="50" height="50" viewBox="0 0 50 50" fill="none" xmlns="http://www.w3.org/2000/svg">
<path d="M6.25 7.5C6.25 7.16848 6.3817 6.85054 6.61612 6.61612C6.85054 6.3817 7.16848 6.25 7.5 6.25H42.5C42.8315 6.25 43.1495 6.3817 43.3839 6.61612C43.6183 6.85054 43.75 7.16848 43.75 7.5V36.25C43.75 36.4142 43.7177 36.5767 43.6548 36.7284C43.592 36.88 43.5 37.0178 43.3839 37.1339C43.2678 37.25 43.13 37.342 42.9784 37.4048C42.8267 37.4677 42.6642 37.5 42.5 37.5H33.875C33.7041 37.4997 33.5349 37.5346 33.3779 37.6023C33.221 37.67 33.0796 37.7692 32.9625 37.8937L25.9104 45.3875C25.7935 45.5117 25.6525 45.6107 25.4959 45.6784C25.3393 45.7461 25.1706 45.781 25 45.781C24.8294 45.781 24.6607 45.7461 24.5041 45.6784C24.3475 45.6107 24.2065 45.5117 24.0896 45.3875L17.0375 37.8937C16.9204 37.7692 16.779 37.67 16.6221 37.6023C16.4651 37.5346 16.2959 37.4997 16.125 37.5H7.5C7.16848 37.5 6.85054 37.3683 6.61612 37.1339C6.3817 36.8995 6.25 36.5815 6.25 36.25V7.5Z" stroke="#232323" stroke-width="1.5"/>
<path d="M25 14.5833L27.9687 19.9479L33.3333 22.9167L27.9687 25.8854L25 31.25L22.0312 25.8854L16.6666 22.9167L22.0312 19.9479L25 14.5833Z" stroke="#232323" stroke-width="1.5" stroke-linecap="round" stroke-linejoin="round"/>
</svg>
