<svg width="50" height="50" viewBox="0 0 50 50" fill="none" xmlns="http://www.w3.org/2000/svg">
<path d="M25 24.4792V25.5208M25 16.6667V17.7083M25 32.2917V33.3333M39.5833 39.5833C40.6884 39.5833 41.7482 39.1443 42.5296 38.3629C43.311 37.5815 43.75 36.5217 43.75 35.4167V29.1667C42.6449 29.1667 41.5851 28.7277 40.8037 27.9463C40.0223 27.1649 39.5833 26.1051 39.5833 25C39.5833 23.8949 40.0223 22.8351 40.8037 22.0537C41.5851 21.2723 42.6449 20.8333 43.75 20.8333V14.5833C43.75 13.4783 43.311 12.4185 42.5296 11.6371C41.7482 10.8557 40.6884 10.4167 39.5833 10.4167H10.4167C9.3116 10.4167 8.25179 10.8557 7.47039 11.6371C6.68899 12.4185 6.25 13.4783 6.25 14.5833V20.8333C7.35507 20.8333 8.41488 21.2723 9.19628 22.0537C9.97768 22.8351 10.4167 23.8949 10.4167 25C10.4167 26.1051 9.97768 27.1649 9.19628 27.9463C8.41488 28.7277 7.35507 29.1667 6.25 29.1667V35.4167C6.25 36.5217 6.68899 37.5815 7.47039 38.3629C8.25179 39.1443 9.3116 39.5833 10.4167 39.5833H39.5833Z" stroke="#232323" stroke-width="1.5" stroke-linecap="round" stroke-linejoin="round"/>
</svg>
